<?xml version="1.0" standalone="no"?>
<!DOCTYPE svg PUBLIC "-//W3C//DTD SVG 20010904//EN"
 "http://www.w3.org/TR/2001/REC-SVG-20010904/DTD/svg10.dtd">
<svg version="1.0" xmlns="http://www.w3.org/2000/svg"
 width="475.000000pt" height="327.000000pt" viewBox="0 0 475.000000 327.000000"
 preserveAspectRatio="xMidYMid meet">

<g transform="translate(0.000000,327.000000) scale(0.100000,-0.100000)"
fill="#000000" stroke="none">
<path d="M2250 2904 c-230 -29 -406 -93 -581 -209 -362 -241 -571 -629 -571
-1060 0 -217 33 -366 122 -552 66 -140 137 -240 250 -353 185 -186 392 -297
668 -357 105 -23 356 -23 470 0 179 36 336 101 480 197 323 216 526 556 562
943 62 652 -386 1247 -1030 1372 -85 16 -303 27 -370 19z m335 -40 c369 -64
671 -274 878 -609 40 -64 117 -251 117 -283 0 -16 -7 -20 -42 -20 -44 -1 -68
11 -68 34 0 30 -81 198 -135 281 -71 107 -214 251 -315 317 -317 208 -705 253
-1055 121 -296 -111 -544 -353 -655 -642 -43 -110 -41 -108 -94 -109 -58 -2
-59 6 -10 129 166 414 528 709 958 781 113 19 312 19 421 0z m-7 -129 c382
-73 694 -327 842 -685 17 -40 30 -79 30 -86 0 -12 -173 -14 -1069 -14 -618 0
-1072 4 -1075 9 -8 12 15 74 63 170 156 313 426 522 776 601 104 24 321 26
433 5z m1018 -826 c42 -68 42 -489 0 -557 -10 -16 -2431 -18 -2441 -2 -15 24
-35 191 -35 285 0 97 19 249 34 273 10 17 2432 17 2442 1z m-2312 -652 c29
-88 104 -230 172 -320 155 -206 379 -354 644 -424 84 -23 116 -26 270 -26 160
-1 184 1 278 26 272 73 505 227 654 434 74 102 104 157 149 268 l36 90 47 2
c58 2 59 -5 10 -130 -69 -180 -165 -320 -316 -462 -235 -221 -527 -335 -855
-335 -521 0 -985 320 -1172 807 -43 114 -42 120 18 121 l49 2 16 -53z m2166
39 c0 -20 -57 -153 -92 -216 -132 -235 -367 -429 -623 -514 -166 -56 -383 -72
-558 -41 -341 59 -648 286 -801 592 -37 73 -76 168 -76 183 0 6 393 10 1075
10 901 0 1075 -2 1075 -14z"/>
<path d="M2235 2567 c-11 -7 -23 -16 -26 -20 -3 -5 -10 -8 -15 -7 -16 3 -16
-20 0 -26 9 -3 13 -11 9 -17 -4 -6 -1 -7 7 -2 10 6 12 4 7 -9 -5 -11 -3 -15 5
-10 8 5 9 2 5 -9 -4 -10 -2 -16 6 -14 7 1 11 -6 11 -15 -1 -10 3 -15 9 -11 7
4 8 0 3 -13 -6 -16 -4 -16 17 4 13 12 29 22 35 22 7 0 12 5 12 11 0 5 5 7 11
3 6 -3 3 8 -6 25 -9 18 -21 29 -27 25 -6 -4 -9 -1 -6 7 6 15 -18 69 -30 68 -4
0 -16 -6 -27 -12z m47 -32 c8 -13 7 -16 -1 -11 -15 10 -13 -5 3 -27 10 -13 15
-14 18 -6 3 9 7 7 11 -5 5 -11 3 -15 -5 -10 -8 5 -9 2 -5 -10 4 -10 3 -15 -3
-11 -6 3 -10 1 -10 -6 0 -7 -7 -4 -16 7 -15 19 -16 19 -10 -1 l6 -20 -16 20
c-26 33 -48 78 -33 69 9 -5 10 -2 6 10 -4 10 -3 15 3 11 6 -3 10 -2 10 4 0 16
32 6 42 -14z"/>
<path d="M2260 2539 c0 -5 -5 -7 -11 -3 -8 5 -8 1 0 -14 16 -30 13 -40 -4 -18
-8 11 -15 16 -15 10 1 -16 30 -50 30 -34 0 9 5 7 15 -6 8 -10 14 -14 14 -9 0
6 -6 19 -14 29 -8 11 -13 28 -9 38 3 10 3 18 0 18 -3 0 -6 -5 -6 -11z"/>
<path d="M2463 2543 c-10 -10 -14 -15 -9 -10 18 14 29 7 15 -10 -12 -14 -10
-14 14 1 31 21 35 28 10 19 -11 -4 -14 -3 -9 5 10 17 1 15 -21 -5z"/>
<path d="M2080 1660 c0 -89 2 -100 20 -110 25 -14 37 8 21 39 -6 11 -11 54
-11 95 0 61 -3 76 -15 76 -12 0 -15 -18 -15 -100z"/>
<path d="M1860 1651 c0 -95 13 -124 32 -73 9 23 22 33 57 43 42 13 46 17 49
47 5 51 -19 72 -85 72 l-53 0 0 -89z m95 29 c0 -20 -6 -26 -26 -28 -28 -3 -43
16 -32 44 3 9 15 14 32 12 20 -2 26 -8 26 -28z"/>
<path d="M2627 1733 c-4 -3 -7 -41 -7 -84 0 -87 14 -112 59 -107 31 4 36 33 6
33 -16 0 -21 8 -23 43 -3 37 0 44 17 49 24 6 28 23 6 23 -9 0 -21 11 -27 25
-11 26 -19 30 -31 18z"/>
<path d="M2225 1675 c-52 -51 -13 -140 58 -133 20 2 32 8 32 18 0 10 -8 14
-26 12 -29 -3 -61 24 -38 32 8 3 30 7 49 8 31 3 35 6 32 27 -6 60 -65 79 -107
36z m64 -19 c10 -11 8 -16 -8 -21 -29 -9 -45 3 -30 21 15 18 23 18 38 0z"/>
<path d="M2417 1693 c-4 -3 -7 -37 -7 -75 0 -61 2 -69 18 -66 13 2 18 15 20
53 4 58 14 74 37 55 10 -8 15 -30 15 -62 0 -42 3 -49 18 -46 30 6 28 101 -4
133 -15 15 -85 21 -97 8z"/>
<path d="M2770 1685 c0 -3 11 -33 25 -67 14 -34 25 -65 25 -70 0 -5 -11 -13
-25 -18 -34 -13 -31 -30 5 -30 35 0 49 18 85 113 30 81 30 77 6 77 -14 0 -21
-10 -28 -37 -12 -51 -30 -52 -43 -4 -8 30 -16 41 -30 41 -11 0 -20 -2 -20 -5z"/>
<path d="M1676 1134 c-3 -9 -6 -25 -6 -37 0 -31 25 -3 25 28 1 28 -10 33 -19
9z"/>
<path d="M2075 1121 c-3 -10 -3 -26 1 -35 3 -9 1 -23 -6 -31 -10 -12 -9 -15 4
-15 13 0 16 11 16 50 0 52 -5 63 -15 31z"/>
<path d="M1780 1095 c-7 -9 -11 -17 -9 -20 3 -2 10 5 17 15 14 24 10 26 -8 5z"/>
<path d="M2235 1100 c-3 -5 -2 -10 4 -10 5 0 13 5 16 10 3 6 2 10 -4 10 -5 0
-13 -4 -16 -10z"/>
<path d="M2390 1103 c5 -2 8 -9 4 -14 -3 -5 0 -9 6 -9 15 0 7 23 -8 26 -7 1
-8 0 -2 -3z"/>
<path d="M2508 1103 c10 -4 10 -8 1 -19 -8 -10 -8 -14 0 -14 6 0 11 -4 11 -10
0 -13 -27 -13 -33 0 -3 6 -4 5 -3 -2 3 -17 35 -23 48 -10 16 16 1 62 -20 61
-11 0 -12 -2 -4 -6z"/>
<path d="M2607 1103 c-4 -3 -7 -18 -6 -32 1 -26 1 -25 10 3 9 31 7 41 -4 29z"/>
<path d="M2897 1103 c-4 -3 -7 -16 -6 -27 0 -20 1 -20 9 2 10 24 35 30 43 9 6
-17 -3 -32 -23 -40 -12 -4 -12 -6 2 -6 23 -1 39 30 27 52 -10 17 -40 23 -52
10z"/>
<path d="M1902 1080 c0 -14 2 -19 5 -12 2 6 2 18 0 25 -3 6 -5 1 -5 -13z"/>
<path d="M2282 1075 c0 -16 2 -22 5 -12 2 9 2 23 0 30 -3 6 -5 -1 -5 -18z"/>
<path d="M2357 1087 c-3 -7 -2 -19 3 -26 5 -9 9 -8 14 5 4 9 3 21 -2 26 -6 6
-12 4 -15 -5z"/>
<path d="M1821 1083 c4 -22 -3 -33 -18 -34 -12 0 -13 -2 -5 -6 7 -3 19 1 27 7
17 14 20 40 5 40 -5 0 -9 -3 -9 -7z"/>
<path d="M3071 1078 c-1 -9 -9 -22 -18 -27 -17 -10 -17 -10 0 -11 19 0 32 22
24 42 -4 8 -6 7 -6 -4z"/>
<path d="M2787 1050 c3 -11 9 -17 14 -14 14 8 10 34 -5 34 -9 0 -12 -7 -9 -20z"/>
<path d="M2038 815 c-6 -14 -16 -25 -22 -25 -6 0 -18 -4 -26 -10 -12 -8 -12
-11 3 -28 10 -10 16 -30 15 -43 -2 -17 1 -23 12 -20 23 7 53 5 74 -4 17 -7 18
-5 12 20 -5 19 -2 33 9 46 20 21 12 39 -16 39 -12 0 -23 10 -29 25 -5 14 -12
25 -15 25 -3 0 -11 -11 -17 -25z"/>
<path d="M2360 816 c-4 -13 -20 -26 -34 -30 -29 -7 -34 -21 -10 -30 11 -4 15
-16 13 -38 -3 -25 0 -32 11 -29 8 3 24 4 35 4 11 0 27 -1 35 -4 11 -3 14 3 12
20 -1 13 5 32 15 43 18 20 11 34 -22 40 -12 2 -21 13 -23 26 -4 29 -20 28 -32
-2z"/>
<path d="M2681 819 c-5 -16 -20 -29 -35 -33 -25 -6 -26 -7 -10 -31 8 -13 14
-34 12 -47 -2 -17 1 -22 12 -19 8 3 24 4 35 4 11 0 27 -1 35 -4 11 -3 14 3 12
20 -1 13 5 32 14 42 19 21 11 39 -17 39 -10 0 -19 4 -19 8 0 5 -6 17 -14 28
-14 18 -15 18 -25 -7z"/>
</g>
</svg>
