<svg xmlns="http://www.w3.org/2000/svg" width="475" height="327" viewBox="0 0 475 327" version="1.1"><path d="M 221.172 71.835 L 218.844 73.626 221.172 78.563 C 222.452 81.278, 223.950 83.831, 224.500 84.235 C 225.050 84.639, 225.145 84.976, 224.711 84.985 C 224.276 84.993, 224.501 85.629, 225.211 86.397 L 226.500 87.794 227.350 86.306 C 227.818 85.488, 229.464 84.288, 231.008 83.639 L 233.815 82.458 230.316 76.229 C 226.581 69.579, 225.057 68.847, 221.172 71.835 M 248.359 71.923 C 245.113 73.902, 243.245 76, 244.729 76 C 245.639 76, 252.835 70.106, 252 70.044 C 251.725 70.024, 250.087 70.869, 248.359 71.923 M 236.624 217.800 C 236.352 218.240, 237.196 218.600, 238.500 218.600 C 239.804 218.600, 240.648 218.240, 240.376 217.800 C 240.104 217.360, 239.260 217, 238.500 217 C 237.740 217, 236.896 217.360, 236.624 217.800 M 250 217.833 C 250 218.292, 250.675 218.667, 251.500 218.667 C 252.325 218.667, 253 218.292, 253 217.833 C 253 217.375, 252.325 217, 251.500 217 C 250.675 217, 250 217.375, 250 217.833 M 249 221 C 249 221.550, 249.675 222, 250.500 222 C 251.325 222, 252 221.550, 252 221 C 252 220.450, 251.325 220, 250.500 220 C 249.675 220, 249 220.450, 249 221" stroke="none" fill="#8c5749" fill-rule="evenodd"/><path d="M 227.500 35.605 C 194.739 38.878, 169.283 50.671, 146.895 72.947 C 127.533 92.212, 115.558 114.650, 110.551 141.044 C 108.491 151.902, 108.491 176.098, 110.551 186.956 C 118.188 227.216, 144.172 261.441, 180.773 279.452 C 191.716 284.837, 198.706 287.209, 212 290.048 L 222.500 292.291 238 292.256 L 253.500 292.221 264.725 289.671 C 291.643 283.556, 312.994 271.417, 332.021 251.409 C 356.709 225.447, 369.430 188.377, 366.029 152.307 C 363.276 123.117, 351.481 97.180, 331.378 76.109 C 311.778 55.566, 290.043 43.269, 264.166 38.081 C 254.390 36.121, 235.260 34.829, 227.500 35.605 M 215.555 41.614 C 178.979 48.216, 147.035 71, 128.787 103.500 C 124.258 111.565, 118 126.631, 118 129.468 C 118 132.812, 119.681 130.698, 121.354 125.250 C 126.100 109.797, 137.240 91.582, 149.838 78.674 C 166.634 61.465, 189.672 48.867, 213.500 43.860 C 222.550 41.958, 253.652 42.222, 263 44.280 C 292.344 50.740, 318.230 67.418, 336.135 91.401 C 342.379 99.764, 350.619 115.541, 353.561 124.765 C 354.484 127.661, 355.698 130.314, 356.258 130.660 C 358.001 131.736, 356.136 124.495, 352.460 115.906 C 335.634 76.596, 300.555 48.841, 258.500 41.564 C 247.369 39.638, 226.366 39.662, 215.555 41.614 M 220.028 45.586 C 194.725 49.518, 171.625 61.363, 152.954 79.981 C 140.618 92.283, 129.593 109.391, 124.910 123.500 C 124.180 125.700, 123.176 128.057, 122.679 128.738 C 122.075 129.565, 122.333 130.191, 123.455 130.621 C 125.689 131.478, 126.428 130.513, 128.523 124 C 136.384 99.561, 159.628 73.357, 184.730 60.637 C 217.698 43.931, 257.017 43.921, 290.270 60.612 C 315.277 73.163, 337.545 98.144, 346.425 123.610 L 348.828 130.500 351.055 130.838 L 353.282 131.176 352.537 129.338 C 352.127 128.327, 351.435 126.316, 351 124.869 C 350.564 123.423, 348.426 118.435, 346.247 113.786 C 323.894 66.085, 271.232 37.630, 220.028 45.586 M 225 52.934 C 192.664 57.695, 164.394 74.371, 146.756 99.089 C 140.657 107.636, 129.960 129.293, 131.216 130.549 C 131.847 131.180, 343.198 131.135, 343.830 130.504 C 344.768 129.566, 337.075 112.740, 331.829 104.257 C 321.130 86.955, 300.776 69.721, 281.474 61.622 C 264.110 54.336, 240.327 50.677, 225 52.934 M 220.753 70.358 C 218.692 71.536, 217.004 72.873, 217.003 73.330 C 216.995 75.694, 226.553 90.931, 228.641 91.882 C 229.947 92.477, 231.765 94.537, 232.682 96.460 L 234.350 99.956 232.816 101.728 C 230.079 104.890, 223 117.569, 223 119.308 C 223 120.523, 223.850 121, 226.015 121 L 229.029 121 230.765 118.080 C 231.719 116.473, 233.781 113.007, 235.347 110.378 L 238.195 105.596 241.400 111.251 C 245.616 118.689, 247.810 121, 250.655 121 C 254.194 121, 253.628 118.748, 247.427 108.158 L 241.855 98.640 243.145 96.229 C 243.854 94.903, 246.111 92.964, 248.160 91.919 C 253.695 89.095, 257.032 84.137, 257.651 77.820 C 258.538 68.758, 253.813 66.086, 246.213 71.352 C 240.769 75.125, 239 78.709, 239 85.963 C 239 89.812, 238.625 91.886, 238 91.500 C 237.450 91.160, 237 89.507, 237 87.825 C 237 83.943, 228.087 67.973, 226 68.115 C 225.175 68.171, 222.814 69.181, 220.753 70.358 M 221.172 71.835 L 218.844 73.626 221.172 78.563 C 222.452 81.278, 223.950 83.831, 224.500 84.235 C 225.050 84.639, 225.145 84.976, 224.711 84.985 C 224.276 84.993, 224.501 85.629, 225.211 86.397 L 226.500 87.794 227.350 86.306 C 227.818 85.488, 229.464 84.288, 231.008 83.639 L 233.815 82.458 230.316 76.229 C 226.581 69.579, 225.057 68.847, 221.172 71.835 M 248.359 71.923 C 245.113 73.902, 243.245 76, 244.729 76 C 245.639 76, 252.835 70.106, 252 70.044 C 251.725 70.024, 250.087 70.869, 248.359 71.923 M 250.092 74.613 C 248.767 75.926, 246.843 77, 245.817 77 C 243.525 77, 242 80.691, 242 86.236 C 242 88.559, 241.320 91.094, 240.435 92.072 C 239.456 93.153, 239.250 94.036, 239.885 94.429 C 240.443 94.774, 241.362 94.192, 241.927 93.136 C 242.492 92.081, 244.931 90.058, 247.347 88.643 C 252.332 85.721, 255.290 80.631, 254.811 75.797 C 254.422 71.871, 253.174 71.558, 250.092 74.613 M 229.441 85.443 L 227.500 86.885 230.627 89.693 C 233.550 92.316, 240.884 103.889, 245.935 113.847 C 247.147 116.238, 248.388 117.946, 248.691 117.642 C 248.995 117.339, 248.103 115.146, 246.711 112.769 C 245.318 110.393, 242.708 105.760, 240.911 102.474 C 239.114 99.188, 236.825 95.150, 235.825 93.500 C 234.826 91.850, 234.006 89.037, 234.004 87.250 C 234 83.675, 232.578 83.111, 229.441 85.443 M 234.826 102.549 C 229.473 111.979, 226.865 117.202, 227.797 116.625 C 229.527 115.556, 236.140 103.919, 235.725 102.674 C 235.512 102.036, 235.146 101.985, 234.826 102.549 M 116.231 137.224 C 114.633 139.153, 112.999 152.887, 113.008 164.322 C 113.014 173.318, 113.957 182.820, 115.532 189.765 L 116.046 192.030 237.773 191.765 L 359.500 191.500 360.642 185 C 362.152 176.409, 362.177 153.410, 360.687 144 L 359.500 136.500 238.394 136.224 L 117.288 135.948 116.231 137.224 M 207.667 150.667 C 207.300 151.033, 207 155.748, 207 161.144 L 207 170.954 209.551 172.626 L 212.103 174.297 213.252 173.148 L 214.401 171.999 213.201 168.678 C 212.540 166.852, 212 161.902, 212 157.679 L 212 150 210.167 150 C 209.158 150, 208.033 150.300, 207.667 150.667 M 185.427 153.329 C 185.147 154.060, 185.048 158.673, 185.209 163.579 L 185.500 172.500 187.750 172.820 L 190 173.139 190 170.770 C 190 169.466, 190.563 167.794, 191.250 167.053 L 192.500 165.707 191.250 166.412 C 190.563 166.800, 190 166.653, 190 166.084 C 190 165.469, 191.212 165.292, 192.988 165.648 C 194.940 166.038, 196.848 165.675, 198.488 164.600 L 201 162.954 201 159.034 L 201 155.113 198.777 153.557 C 195.961 151.584, 186.161 151.417, 185.427 153.329 M 262.250 152.662 C 261.382 153.013, 261 155.874, 261 162.027 L 261 170.887 263.223 172.443 C 266.013 174.398, 269.389 174.442, 270.964 172.544 C 272.476 170.721, 271.494 169, 268.941 169 L 267 169 267 165.406 L 267 161.813 269 161.290 C 271.555 160.622, 271.691 157, 269.161 157 C 268.149 157, 266.808 155.875, 266.182 154.500 C 265.033 151.979, 264.529 151.743, 262.250 152.662 M 222.025 157.975 C 218.377 161.623, 218.162 168.019, 221.571 171.429 C 225.073 174.930, 233 174.620, 233 170.981 L 233 169 229.500 169 C 227.575 169, 226 168.550, 226 168 C 226 167.450, 227.752 167, 229.893 167 C 234.421 167, 235.417 165.494, 233.853 161.007 C 232.053 155.846, 225.766 154.234, 222.025 157.975 M 241.075 157.410 C 240.359 158.272, 240.020 161.478, 240.202 165.660 L 240.500 172.500 243 172.500 L 245.500 172.500 245.509 167 L 245.518 161.500 247.009 161.500 C 248.089 161.500, 248.638 163.016, 249 167 L 249.500 172.500 251.715 172.815 L 253.929 173.130 254.588 170.505 C 255.679 166.158, 254.343 159.696, 251.952 157.760 C 249.341 155.645, 242.716 155.432, 241.075 157.410 M 277.077 157.407 L 275.909 158.815 278.454 165.080 C 279.854 168.526, 281 171.668, 281 172.064 C 281 172.460, 279.845 173.073, 278.434 173.427 C 274.929 174.307, 275.569 177.391, 279.347 177.825 C 283.401 178.290, 285.518 175.874, 289.027 166.772 L 292.095 158.819 290.942 157.431 C 289.153 155.275, 286.336 157.395, 285.571 161.473 C 284.701 166.113, 283.408 165.953, 282.633 161.109 C 282.284 158.923, 281.316 156.951, 280.424 156.609 C 278.335 155.808, 278.422 155.787, 277.077 157.407 M 190.534 157.945 C 189.569 159.506, 190.839 161, 193.132 161 C 194.507 161, 195.040 160.448, 194.812 159.261 C 194.428 157.269, 191.507 156.370, 190.534 157.945 M 118 198.538 C 118 201.398, 124.917 218.009, 129.135 225.277 C 150.360 261.851, 185.758 284.287, 227.855 287.846 C 251.352 289.833, 277.781 284.124, 298.362 272.615 C 314.635 263.514, 331.050 248.249, 341.580 232.424 C 347.544 223.459, 355.380 206.823, 356.533 200.674 C 357.605 194.963, 355.703 196.366, 353.708 202.759 C 346.538 225.732, 327.678 250.709, 306.928 264.711 C 284.661 279.737, 265.703 285.403, 237.500 285.462 L 220.500 285.498 210.928 283.330 C 193.307 279.340, 174.956 270.665, 161.436 259.936 C 143.396 245.620, 127.618 223.078, 121.318 202.617 C 119.674 197.277, 118 195.219, 118 198.538 M 122 197.444 C 122 197.765, 122.405 198.809, 122.900 199.764 C 123.395 200.719, 125.056 204.650, 126.591 208.500 C 140.311 242.919, 169.943 269.285, 206.500 279.603 C 213.466 281.568, 231.147 284.001, 238.424 283.995 C 247.402 283.987, 266.650 280.469, 276.623 277.014 C 287.466 273.257, 300.259 266.412, 309.680 259.328 C 322.942 249.354, 337.426 232.043, 344.912 217.216 C 348.136 210.832, 353.043 197.710, 352.435 197.102 C 351.088 195.754, 348.640 199.162, 345.686 206.500 C 339.619 221.568, 332.525 232.489, 321.116 244.327 C 305.478 260.551, 287.840 270.592, 264.364 276.632 L 253.500 279.428 237.500 279.406 L 221.500 279.385 210.684 276.623 C 196.381 272.971, 184.713 267.981, 173.954 260.917 C 152.916 247.102, 135.762 225.397, 128.181 203 L 126.320 197.500 124.160 197.180 C 122.972 197.005, 122 197.123, 122 197.444 M 131.536 199.250 C 133.035 204.280, 141.224 220.567, 145.448 226.922 C 147.928 230.652, 153.485 237.290, 157.798 241.673 C 173.825 257.960, 191.030 267.439, 215 273.185 L 223.500 275.223 237.500 275.229 L 251.500 275.235 262 272.689 C 297.753 264.020, 326.101 240.485, 340.210 207.758 C 342.295 202.923, 344 198.525, 344 197.984 C 344 197.345, 306.649 197, 237.433 197 L 130.865 197 131.536 199.250 M 168.163 211.598 L 166 213.113 166 217.998 C 166 223.953, 168.929 226.652, 169.528 221.250 C 169.635 220.287, 169.972 218.825, 170.278 218 C 171.532 214.611, 171.955 211.091, 171.167 210.603 C 170.704 210.317, 169.353 210.765, 168.163 211.598 M 207.500 212 C 207.160 212.550, 207.160 213.450, 207.500 214 C 207.850 214.566, 207.022 215, 205.594 215 C 200.469 215, 199.765 222.200, 204.707 224.079 C 208.635 225.572, 210 223.715, 210 216.878 C 210 211.459, 209.018 209.543, 207.500 212 M 177.200 216.200 C 175.296 218.104, 175.802 221.748, 178.204 223.430 L 180.407 224.974 182.454 223.622 C 184.887 222.015, 185.629 218.463, 183.954 216.445 C 182.498 214.690, 178.842 214.558, 177.200 216.200 M 190.200 216.200 C 189.540 216.860, 189 218.345, 189 219.500 C 189 224.215, 195.205 225.839, 197.124 221.626 C 199.265 216.929, 193.774 212.626, 190.200 216.200 M 222.394 216.416 C 222.095 217.194, 221.997 219.072, 222.175 220.588 C 222.597 224.167, 225 225.064, 225 221.642 C 225 218.157, 226.791 217.348, 227.182 220.656 C 227.357 222.135, 228.024 223.518, 228.665 223.728 C 230.379 224.290, 231.203 220.664, 230.050 217.632 L 229.050 215 225.993 215 C 224.280 215, 222.699 215.622, 222.394 216.416 M 235.571 216.571 C 233.465 218.678, 233.592 220.592, 236 223 C 239.171 226.171, 241.341 225.272, 242.289 220.396 C 243.246 215.466, 239.060 213.083, 235.571 216.571 M 247.975 217.565 C 246.537 221.347, 246.770 222.806, 249 224 C 251.948 225.578, 255 223.627, 255 220.165 C 255 214.884, 249.735 212.936, 247.975 217.565 M 259.394 216.416 C 259.095 217.194, 258.997 219.072, 259.175 220.588 C 259.597 224.167, 262 225.064, 262 221.642 C 262 220.254, 262.450 218.840, 263 218.500 C 263.550 218.160, 264 217.234, 264 216.441 C 264 214.580, 260.107 214.558, 259.394 216.416 M 276.440 216.314 C 276.053 217.311, 276.229 219.208, 276.831 220.528 C 277.519 222.039, 277.568 223.149, 276.962 223.523 C 275.022 224.723, 275.949 227.146, 278.223 226.820 C 279.855 226.585, 280.926 225.202, 282.255 221.616 C 284.201 216.363, 283.901 214.942, 281.207 216.641 L 279.510 217.712 278.326 216.106 L 277.143 214.500 276.440 216.314 M 289.427 215.765 C 286.999 217.428, 287.029 220.120, 289.503 222.594 L 291.987 225.078 293.926 224.040 C 296.461 222.683, 297.386 219.590, 296.020 217.038 C 294.939 215.017, 291.491 214.352, 289.427 215.765 M 301.639 215.694 C 301.288 216.046, 301 217.843, 301 219.688 L 301 223.043 303.470 224.168 L 305.941 225.294 307.521 223.983 C 308.554 223.125, 308.997 221.430, 308.801 219.086 C 308.461 215.036, 306.666 214.613, 306.184 218.469 C 305.778 221.710, 304 221.783, 304 218.559 C 304 216.050, 302.773 214.560, 301.639 215.694 M 236.624 217.800 C 236.352 218.240, 237.196 218.600, 238.500 218.600 C 239.804 218.600, 240.648 218.240, 240.376 217.800 C 240.104 217.360, 239.260 217, 238.500 217 C 237.740 217, 236.896 217.360, 236.624 217.800 M 250 217.833 C 250 218.292, 250.675 218.667, 251.500 218.667 C 252.325 218.667, 253 218.292, 253 217.833 C 253 217.375, 252.325 217, 251.500 217 C 250.675 217, 250 217.375, 250 217.833 M 179 219.500 C 179 220.325, 179.450 221, 180 221 C 180.550 221, 181 220.325, 181 219.500 C 181 218.675, 180.550 218, 180 218 C 179.450 218, 179 218.675, 179 219.500 M 192 219.500 C 192 220.417, 192.484 221.005, 193.075 220.808 C 193.666 220.611, 194.150 220.022, 194.150 219.500 C 194.150 218.978, 193.666 218.389, 193.075 218.192 C 192.484 217.995, 192 218.583, 192 219.500 M 205 219.500 C 205 220.325, 205.450 221, 206 221 C 206.550 221, 207 220.325, 207 219.500 C 207 218.675, 206.550 218, 206 218 C 205.450 218, 205 218.675, 205 219.500 M 291 219.500 C 291 220.325, 291.450 221, 292 221 C 292.550 221, 293 220.325, 293 219.500 C 293 218.675, 292.550 218, 292 218 C 291.450 218, 291 218.675, 291 219.500 M 249 221 C 249 221.550, 249.675 222, 250.500 222 C 251.325 222, 252 221.550, 252 221 C 252 220.450, 251.325 220, 250.500 220 C 249.675 220, 249 220.450, 249 221 M 203.642 243.726 C 202.581 245.777, 201.009 247.059, 199.017 247.496 C 195.481 248.273, 195.283 249.041, 197.985 251.486 C 199.295 252.672, 199.890 254.338, 199.735 256.391 L 199.500 259.500 201.500 259.158 C 202.600 258.969, 204.400 258.815, 205.500 258.815 C 206.600 258.815, 208.400 258.969, 209.500 259.158 L 211.500 259.500 211.265 256.391 C 211.111 254.340, 211.705 252.672, 213.012 251.489 L 214.993 249.696 213.874 248.348 C 213.259 247.607, 211.685 247, 210.378 247 C 209.070 247, 208 246.411, 208 245.691 C 208 244.971, 207.381 243.536, 206.624 242.501 L 205.248 240.619 203.642 243.726 M 235.694 244 C 235.071 245.650, 233.956 247, 233.215 247 C 232.474 247, 230.956 247.488, 229.840 248.085 L 227.812 249.171 229.963 251.461 C 231.373 252.961, 232.009 254.743, 231.807 256.626 L 231.500 259.500 233.500 259.158 C 234.600 258.969, 236.400 258.815, 237.500 258.815 C 238.600 258.815, 240.400 258.969, 241.500 259.158 L 243.500 259.500 243.265 256.391 C 243.111 254.340, 243.705 252.672, 245.012 251.489 L 246.993 249.696 245.874 248.348 C 245.259 247.607, 243.887 247, 242.826 247 C 241.581 247, 240.525 245.936, 239.850 244 C 239.275 242.350, 238.359 241, 237.815 241 C 237.271 241, 236.317 242.350, 235.694 244 M 267.916 243.812 C 267.178 245.928, 266.043 246.941, 263.942 247.362 C 260.707 248.009, 260.125 250.029, 262.586 252.072 C 263.660 252.963, 263.989 254.306, 263.604 256.232 C 262.946 259.520, 265.085 261.004, 267.542 258.965 L 269.059 257.706 271.605 258.866 C 274.815 260.328, 276.326 259.436, 275.592 256.512 C 275.221 255.034, 275.769 253.291, 277.161 251.522 L 279.300 248.803 277.900 247.917 C 277.130 247.429, 275.701 247.024, 274.725 247.015 C 273.749 247.007, 272.539 245.919, 272.037 244.597 C 270.605 240.831, 269.058 240.536, 267.916 243.812" stroke="none" fill="#4c0708" fill-rule="evenodd"/></svg>